<svg id="Capa_1" enable-background="new 0 0 512 512" height="512" viewBox="0 0 512 512" width="512" xmlns="http://www.w3.org/2000/svg"><g><path d="m391.058 319.128h8.59c4.166 0 7.512 3.345 7.512 7.483 0 4.167-3.346 7.512-7.512 7.512h-10.545v31.862c8.021 10.488 20.154 19.389 35.008 25.768 3.457 1.502 7.086 2.835 10.799 4.053v-380.811h-171.412v387.133c17.035-.85 32.882-4.536 46.489-10.375 14.854-6.378 26.984-15.28 35.008-25.768v-31.862h-10.574c-4.139 0-7.482-3.345-7.482-7.512 0-4.139 3.344-7.483 7.482-7.483h8.617c-1.758-3.543-2.721-7.512-2.721-11.736 0-7.37 3.004-14.06 7.824-18.879 4.848-4.847 11.537-7.823 18.907-7.823 7.371 0 14.061 2.976 18.879 7.823 4.848 4.819 7.824 11.509 7.824 18.879.001 4.224-.964 8.193-2.693 11.736zm8.108-159.848c0-4.139 3.344-7.512 7.482-7.512 4.139 0 7.512 3.373 7.512 7.512v82.008c0 4.139-3.373 7.512-7.512 7.512h-115.513c-4.139 0-7.512-3.373-7.512-7.512v-198.003c0-4.167 3.373-7.512 7.512-7.512h115.514c4.139 0 7.512 3.345 7.512 7.512v82.007c0 4.139-3.373 7.512-7.512 7.512s-7.482-3.373-7.482-7.512v-74.523h-100.52v183.036h100.519zm-185.814 0c0-4.139 3.344-7.512 7.513-7.512 4.139 0 7.482 3.373 7.482 7.512v82.008c0 4.139-3.344 7.512-7.482 7.512h-115.543c-4.139 0-7.482-3.373-7.482-7.512v-198.003c0-4.167 3.344-7.512 7.482-7.512h115.543c4.139 0 7.482 3.345 7.482 7.512v82.007c0 4.139-3.344 7.512-7.482 7.512-4.169 0-7.513-3.373-7.513-7.512v-74.523h-100.518v183.036h100.519v-74.525zm35.15-144.285h-171.442v380.812c3.742-1.219 7.342-2.551 10.801-4.053 14.881-6.378 27.014-15.28 35.035-25.768v-31.862h-10.572c-4.139 0-7.484-3.345-7.484-7.512 0-4.139 3.346-7.483 7.484-7.483h8.588c-1.729-3.543-2.691-7.512-2.691-11.736 0-7.37 3.004-14.06 7.822-18.879 4.848-4.847 11.51-7.823 18.908-7.823 7.37 0 14.06 2.976 18.88 7.823 4.848 4.819 7.822 11.509 7.822 18.879 0 4.224-.963 8.193-2.691 11.736h8.588c4.139 0 7.512 3.345 7.512 7.483 0 4.167-3.373 7.512-7.512 7.512h-10.545v31.862c8.021 10.488 20.154 19.389 35.008 25.768 13.607 5.839 29.425 9.524 46.489 10.375zm14.996 402.157v28.517h81.497v-58.054c-8.193 7.087-18.057 13.152-29.17 17.915-15.391 6.604-33.222 10.743-52.327 11.622zm-14.996 28.516v-28.517c-19.105-.879-36.964-5.018-52.356-11.622-11.111-4.763-20.977-10.829-29.141-17.915v58.054zm201.432-46.035c8.93 1.758 18.369 2.693 28.148 2.693 8.164 0 16.355-.652 24.406-2.013 4.082-.681 7.938 2.098 8.618 6.151.68 4.082-2.069 7.937-6.151 8.618-8.873 1.502-17.859 2.239-26.873 2.239-9.695 0-19.133-.851-28.148-2.438v38.269c0 4.139-3.373 7.512-7.512 7.512h-53.319v43.852c0 4.139-3.346 7.483-7.512 7.483h-29.114c-4.139 0-7.482-3.345-7.482-7.483v-43.852h-177.99v43.852c0 4.139-3.344 7.483-7.512 7.483h-29.112c-4.139 0-7.484-3.345-7.484-7.483v-43.852h-53.32c-4.168 0-7.512-3.374-7.512-7.512v-38.269c-9.016 1.587-18.455 2.438-28.178 2.438-8.984 0-17.971-.737-26.844-2.239-4.082-.681-6.832-4.536-6.15-8.618.68-4.053 4.535-6.832 8.617-6.151 8.051 1.36 16.215 2.013 24.377 2.013 9.809 0 19.248-.936 28.178-2.693v-392.121c0-4.139 3.344-7.512 7.512-7.512h372.846c4.139 0 7.512 3.373 7.512 7.512v392.121zm-15.024 11.792c-5.811-1.644-11.367-3.628-16.668-5.896-11.111-4.763-20.977-10.829-29.139-17.915v58.054h45.807zm-312.014 34.243v-58.054c-8.191 7.087-18.057 13.152-29.168 17.915-5.271 2.268-10.857 4.252-16.668 5.896v34.243zm252.43-146.553c-2.125-2.126-5.045-3.43-8.277-3.43-3.231 0-6.181 1.304-8.306 3.43-2.098 2.126-3.43 5.046-3.43 8.277 0 3.26 1.332 6.18 3.43 8.306 2.125 2.126 5.074 3.43 8.306 3.43 3.233 0 6.152-1.304 8.277-3.43 2.127-2.126 3.43-5.046 3.43-8.306 0-3.231-1.303-6.151-3.43-8.277zm-222.097 0c-2.127-2.126-5.047-3.43-8.278-3.43-3.232 0-6.18 1.304-8.307 3.43-2.098 2.126-3.43 5.046-3.43 8.277 0 3.26 1.332 6.18 3.43 8.306 2.127 2.126 5.074 3.43 8.307 3.43 3.231 0 6.151-1.304 8.278-3.43 2.125-2.126 3.43-5.046 3.43-8.306 0-3.231-1.305-6.151-3.43-8.277zm145.418 3.912c0 4.139-3.373 7.512-7.513 7.512-4.139 0-7.512-3.373-7.512-7.512v-32.599c0-4.139 3.373-7.512 7.512-7.512 4.14 0 7.513 3.373 7.513 7.512zm-70.3 0c0 4.139-3.344 7.512-7.482 7.512-4.169 0-7.513-3.373-7.513-7.512v-32.599c0-4.139 3.344-7.512 7.513-7.512 4.139 0 7.482 3.373 7.482 7.512zm145.76 31.097h-14.118v162.881h14.118zm-222.097 0h-14.118v162.881h14.118z"/></g></svg>