<svg xmlns="http://www.w3.org/2000/svg" xmlns:xlink="http://www.w3.org/1999/xlink" viewBox="0 0 395.62 124.78"><defs><style>.cls-1{fill:url(#linear-gradient);}.cls-2{fill:url(#linear-gradient-2);}.cls-3{fill:url(#linear-gradient-3);}.cls-4{fill:#174899;}</style><linearGradient id="linear-gradient" x1="1.24" y1="110.81" x2="68.45" y2="6.53" gradientTransform="translate(-2.1 5.66) rotate(-2.04)" gradientUnits="userSpaceOnUse"><stop offset="0" stop-color="#174899"/><stop offset="0.5" stop-color="#243a78"/><stop offset="0.64" stop-color="#22346d"/><stop offset="1" stop-color="#1c2756"/></linearGradient><linearGradient id="linear-gradient-2" x1="135.57" y1="113.92" x2="70.49" y2="8.17" gradientTransform="translate(-2.1 5.66) rotate(-2.04)" gradientUnits="userSpaceOnUse"><stop offset="0" stop-color="#1c2756"/><stop offset="0.36" stop-color="#22346d"/><stop offset="0.5" stop-color="#243a78"/><stop offset="1" stop-color="#174899"/></linearGradient><linearGradient id="linear-gradient-3" x1="142.54" y1="114.09" x2="198.43" y2="6.91" xlink:href="#linear-gradient"/></defs><title>logo</title><g id="Layer_2" data-name="Layer 2"><g id="Layer_1-2" data-name="Layer 1"><path class="cls-1" d="M46,4.75c-5.41.81-10.28,4.61-17.78,21C17.14,49.77,11,79.63.37,104.14c-3.6,14.74,20,23.24,26.39,19.93,2-1,9.65-8.15,24.67-56.61C60.94,36.8,72.23,4,86,3.32L46,4.75"/><path class="cls-2" d="M114,122.27c-8.11-1-24.28-42.49-30.36-58.13C67.61,23,56.34,5.2,46,4.75L86,3.32c3.11.21,10.38.71,21.58,20.52,12.86,22.73,21.63,51,32.94,75.87,3.3,12.91-16.33,23.76-26.52,22.56"/><path class="cls-3" d="M176.72.25c-8,1.53-21.19,44.11-26.14,60.14-13.06,42.21-23,60.73-33.37,61.92l40.05-1.42c3.08-.44,10.3-1.45,20.07-22,11.2-23.58,17.94-52.43,27.45-78,2.38-13.12-18-22.54-28.06-20.62"/><path class="cls-4" d="M261.54,86.75h-9.61V66.19a9.92,9.92,0,0,0-1.35-5.72,4.92,4.92,0,0,0-4.31-1.9c-2.69,0-4.63.89-5.83,2.69s-1.79,4.77-1.79,8.92V86.75H229V51.54h7.34l1.29,4.51h.54a10.13,10.13,0,0,1,4.42-3.86A15.07,15.07,0,0,1,249,50.88q6.14,0,9.32,3.32t3.18,9.59Z"/><path class="cls-4" d="M287.36,87.38q-8.5,0-13.29-4.69T269.29,69.4q0-8.85,4.42-13.68t12.23-4.84q7.47,0,11.62,4.25t4.16,11.75v4.66H279a9.21,9.21,0,0,0,2.42,6.39,8.54,8.54,0,0,0,6.36,2.3,26.51,26.51,0,0,0,6-.66,29.81,29.81,0,0,0,5.92-2.11v7.43a22.18,22.18,0,0,1-5.39,1.87A33.86,33.86,0,0,1,287.36,87.38ZM286,57.72a6.09,6.09,0,0,0-4.79,1.93,8.94,8.94,0,0,0-2,5.5h13.47a8,8,0,0,0-1.85-5.5A6.31,6.31,0,0,0,286,57.72Z"/><path class="cls-4" d="M334.09,76.29q0,5.43-3.76,8.25t-11.26,2.84a35.09,35.09,0,0,1-6.55-.52,25.33,25.33,0,0,1-5.07-1.53V77.4a34,34,0,0,0,6,2.11,24.83,24.83,0,0,0,5.91.85q5.22,0,5.22-3a2.53,2.53,0,0,0-.69-1.84,9.89,9.89,0,0,0-2.39-1.6q-1.71-.9-4.54-2.1a28,28,0,0,1-6-3.15,8.86,8.86,0,0,1-2.78-3.32,11.09,11.09,0,0,1-.86-4.61A8.35,8.35,0,0,1,311,53.45q3.63-2.56,10.31-2.57a29.36,29.36,0,0,1,12.37,2.77l-2.89,6.93c-1.77-.75-3.41-1.37-4.95-1.86a15.56,15.56,0,0,0-4.69-.72q-4.24,0-4.25,2.3a2.7,2.7,0,0,0,1.37,2.23,36.88,36.88,0,0,0,6,2.81,28.33,28.33,0,0,1,6.05,3.11,9.26,9.26,0,0,1,2.83,3.34A10.24,10.24,0,0,1,334.09,76.29Z"/><path class="cls-4" d="M361.05,58.75h-8.32v28h-9.6v-28h-5.29V54.13l5.29-2.59V49q0-6,3-8.78t9.48-2.78a24.84,24.84,0,0,1,8.85,1.48L362,45.94a17.9,17.9,0,0,0-5.35-.92,3.46,3.46,0,0,0-3,1.22,5,5,0,0,0-.92,3.1v2.2h8.32Z"/><path class="cls-4" d="M388.92,86.75,387.06,82h-.25a14.23,14.23,0,0,1-5,4.24,16.16,16.16,0,0,1-6.7,1.18,10.82,10.82,0,0,1-8-2.9q-2.91-2.9-2.91-8.25,0-5.6,3.92-8.26T380,65l6.11-.19V63.29c0-3.57-1.82-5.35-5.48-5.35a25,25,0,0,0-9.92,2.55L367.5,54A28.64,28.64,0,0,1,381,50.82q7.08,0,10.87,3.08t3.77,9.39V86.75Zm-2.84-16.31-3.71.12c-2.8.09-4.87.59-6.24,1.51a4.77,4.77,0,0,0-2.05,4.22c0,2.71,1.56,4.07,4.66,4.07a7.38,7.38,0,0,0,5.34-1.92,6.74,6.74,0,0,0,2-5.11Z"/></g></g></svg>